<svg width="21" height="30" viewBox="0 0 21 30" fill="none" xmlns="http://www.w3.org/2000/svg">
<path d="M17.3252 21.1735C17.0029 21.1389 16.7147 21.3722 16.6804 21.6939L15.9192 28.8281H5.41406L4.66318 21.7898C4.62884 21.468 4.34027 21.2347 4.01842 21.2694C3.69662 21.3037 3.46365 21.5924 3.49799 21.9141L4.30476 29.4762C4.33652 29.7741 4.58783 30 4.88736 30H16.446C16.7456 30 16.9969 29.7741 17.0286 29.4762L17.8457 21.8183C17.8799 21.4965 17.6469 21.2078 17.3252 21.1735Z" fill="#324A59"/>
<path d="M20.0412 4.17715H18.7301L17.698 1.63951C17.6081 1.41873 17.3936 1.27436 17.1552 1.27436H13.5602L12.5535 0.187734C12.4426 0.0680273 12.2868 0 12.1236 0H9.20965C9.04647 0 8.89073 0.0680273 8.77987 0.187734L7.77311 1.27436H4.17815C3.93979 1.27436 3.72522 1.41873 3.6354 1.63951L2.60315 4.17715H1.29211C0.968501 4.17715 0.706177 4.43947 0.706177 4.76309V7.28104C0.706177 7.60465 0.968501 7.86697 1.29211 7.86697H1.99922L2.73481 14.7616C2.76915 15.0834 3.05772 15.3166 3.37958 15.2821C3.70137 15.2477 3.93434 14.959 3.9 14.6373L3.17766 7.86697H18.1555L17.4308 14.6598C17.3964 14.9816 17.6295 15.2702 17.9512 15.3046C17.9723 15.3069 17.9933 15.308 18.0141 15.308C18.3097 15.308 18.5639 15.0848 18.596 14.7841L19.334 7.86697H20.0411C20.3647 7.86697 20.627 7.60465 20.627 7.28104V4.76309C20.6271 4.43947 20.3648 4.17715 20.0412 4.17715ZM4.57231 2.44623H8.02899C8.19217 2.44623 8.34791 2.3782 8.45877 2.2585L9.46553 1.17188H11.8678L12.8745 2.2585C12.9854 2.37814 13.1412 2.44623 13.3043 2.44623H16.761L17.465 4.17715H3.86825L4.57231 2.44623ZM19.4552 6.6951H1.87805V5.34902H19.4552V6.6951Z" fill="#324A59"/>
<path d="M1.69675 12.8271L2.86511 23.7779H18.4682L19.6365 12.8271H1.69675ZM10.6666 20.5038C9.47577 20.5038 8.51038 19.5384 8.51038 18.3476C8.51038 17.1567 9.47577 16.1913 10.6666 16.1913C11.8575 16.1913 12.8229 17.1567 12.8229 18.3476C12.8229 19.5384 11.8575 20.5038 10.6666 20.5038Z" fill="#E4D5C9"/>
<path d="M10.6666 21.0897C9.15456 21.0897 7.92444 19.8596 7.92444 18.3475C7.92444 16.8355 9.15456 15.6053 10.6666 15.6053C12.1787 15.6053 13.4088 16.8355 13.4088 18.3475C13.4088 19.8596 12.1787 21.0897 10.6666 21.0897ZM10.6666 16.7773C9.80079 16.7773 9.09632 17.4817 9.09632 18.3476C9.09632 19.2135 9.80073 19.9179 10.6666 19.9179C11.5325 19.9179 12.2369 19.2135 12.2369 18.3476C12.2369 17.4817 11.5325 16.7773 10.6666 16.7773Z" fill="#324A59"/>
</svg>
